<?xml version="1.0" encoding="UTF-8"?>
<svg width="41px" height="23px" viewBox="0 0 41 23" version="1.1" xmlns="http://www.w3.org/2000/svg" xmlns:xlink="http://www.w3.org/1999/xlink">
    <!-- Generator: Sketch 50.2 (55047) - http://www.bohemiancoding.com/sketch -->
    <title>Untitled 3</title>
    <desc>Created with Sketch.</desc>
    <defs></defs>
    <g id="Page-1" stroke="none" stroke-width="1" fill="none" fill-rule="evenodd">
        <g id="EMILY's_List_(logo)" fill-rule="nonzero">
            <g id="g248" transform="translate(5.382979, 0.000000)" fill="#322B29">
                <path d="M0.558361702,2.93665957 C0.558361702,1.48668085 0.529978723,0.599468085 0.486425532,0.173234043 C0.865191489,0.108148936 1.58161702,1.11022302e-16 2.09153191,1.11022302e-16 C2.33817021,1.11022302e-16 2.41695745,0.129191489 2.41695745,1.16908511 L2.41695745,11.3517234 C2.8622766,11.487766 3.90070213,11.5313191 4.81923404,11.5313191 C5.80334043,11.5313191 7.18285106,11.5171277 8.0103617,11.4231702 L8.05391489,11.466234 C7.93891489,12.0994681 7.57482979,12.5976383 7.04729787,12.7860426 C6.76885106,12.8369362 6.06368085,12.88 4.55302128,12.88 C2.81529787,12.88 1.46221277,12.7860426 0.886723404,12.6637021 L0.558361702,12.2311064 L0.558361702,2.93665957 Z" id="path264"></path>
                <path d="M9.96144681,4.89410638 C9.96144681,3.86840426 9.93991489,3.21168085 9.92474468,2.87940426 C10.1899787,2.81431915 11.1642979,2.7497234 11.4373617,2.7497234 C11.6766596,2.7497234 11.740766,2.90142553 11.740766,3.64868085 L11.740766,10.7630213 C11.740766,11.834234 11.7843191,12.3612766 11.8058511,12.7072553 C11.5670426,12.7938723 10.6372553,12.8369362 10.3338511,12.8369362 C10.1048298,12.8369362 9.96144681,12.7938723 9.96144681,12.5124894 L9.96144681,4.89410638 Z" id="path266"></path>
                <path d="M17.4932128,2.63521277 C18.5541489,2.63521277 19.4961702,3.00810638 19.8005532,3.35114894 C19.7716809,3.57821277 19.5739787,3.94131915 19.4531064,4.10085106 C19.3111915,4.27848936 19.1594894,4.32938298 18.9720638,4.23885106 C18.722,4.11553191 18.1367234,3.88748936 17.4707021,3.88748936 C16.6583617,3.88748936 16.0398085,4.3367234 16.0398085,5.12117021 C16.0398085,5.95259574 16.8222979,6.43412766 18.0868085,7.25870213 C19.3689362,8.08131915 20.2997021,8.74685106 20.2997021,10.1958511 C20.2997021,12.1298085 18.4577447,13.0096809 16.8002766,13.0096809 C15.5974255,13.0096809 14.7420213,12.7219362 14.3451489,12.4493617 C14.0848085,12.2702553 13.9967234,12.1170851 13.9967234,11.839617 C13.9967234,11.5895532 14.2130213,11.0987234 14.3617872,10.9685532 C15.0385745,11.4510638 15.8920213,11.7490851 16.6818511,11.7490851 C17.7339787,11.7490851 18.3745532,11.1917021 18.3745532,10.3876809 C18.3745532,9.72068085 17.9933404,9.28906383 16.0466596,8.01280851 C14.7576809,7.19997872 14.2614681,6.34359574 14.2614681,5.34187234 C14.2614681,4.24276596 14.9563617,2.63374468 17.4716809,2.63374468 L17.4932128,2.63374468 L17.4932128,2.63521277 Z" id="path268"></path>
                <path d="M24.6902553,2.83585106 C23.0655745,2.83585106 22.6065532,2.81431915 22.3251702,2.74923404 C22.1304043,2.91610638 21.9194894,3.14659574 21.7301064,3.69419149 C21.6058085,3.94719149 21.7467447,4.09253191 22.0315532,4.09253191 L25.1076809,4.09253191 L25.1076809,10.6142553 C25.1076809,11.7182553 25.064617,13.0135957 25.0430851,13.3096596 C25.3827021,13.3678936 25.7296596,13.0067447 26.5850638,12.6715319 C26.7954894,12.5888298 26.887,12.6000851 26.887,12.3965106 L26.887,4.09253191 L29.7057234,4.09253191 C30.0428936,4.00591489 30.3839787,3.51704255 30.469617,2.83585106 L24.6902553,2.83585106 Z" id="path270"></path>
            </g>
            <g id="g302" transform="translate(0.000000, 8.319149)">
                <path d="M0.344510638,3.3286383 C2.26329787,5.47302128 4.33182979,7.67955319 6.50117021,9.94921277 C7.76910638,10.6876596 9.07178723,11.333617 10.3984468,11.8870851 C8.12878723,9.73976596 5.93106383,7.65459574 3.8537234,5.63206383 C2.63912766,4.95723404 1.46612766,4.18942553 0.344510638,3.3286383 Z" id="path304" fill="#FDB913"></path>
                <path d="M18.1866383,14.0412553 C16.4117234,12.2120213 14.6451277,10.4801702 12.9088723,8.84619149 C11.2778298,8.55404255 9.67321277,8.12731915 8.1126383,7.56602128 C9.77402128,9.25138298 11.4853191,11.034617 13.225,12.9157234 C14.8594681,13.4246596 16.519383,13.8004894 18.1866383,14.0412553 Z" id="path306" fill="#F8971D"></path>
                <path d="M26.094234,14.173383 C24.9236809,12.3593191 23.7433404,10.6445957 22.5595745,9.0287234 C20.6075106,9.29689362 18.6451702,9.38106383 16.7009362,9.28074468 C17.8798085,10.8447447 19.0660213,12.5080851 20.2517447,14.2702766 C22.207234,14.4224681 24.1641915,14.3896809 26.094234,14.173383 Z" id="path308" fill="#F47920"></path>
                <path d="M33.7087021,12.2834681 C33.160617,10.1831277 32.6071489,8.14885106 32.0482979,6.18112766 C29.9367021,7.18725532 27.7521915,7.9516383 25.535383,8.4742766 C26.1221277,10.2545745 26.7069149,12.1014255 27.2882766,14.0148298 C29.4850213,13.679617 31.6387021,13.1026596 33.7087021,12.2834681 Z" id="path310" fill="#F15623"></path>
                <path d="M34.0409787,5.14661702 C34.0409787,7.48087234 34.0409787,9.81512766 34.0409787,12.149383 C36.363,11.1970851 38.5749149,9.93746809 40.6170213,8.37102128 C40.6170213,5.68148936 40.6170213,2.99195745 40.6170213,0.302914894 C38.5749149,2.2246383 36.363,3.83953191 34.0409787,5.14661702 Z" id="path312" fill="#ED1C24"></path>
            </g>
        </g>
    </g>
</svg>