<?xml version="1.0" encoding="UTF-8"?>
<svg width="612px" height="584px" viewBox="0 0 612 584" version="1.1" xmlns="http://www.w3.org/2000/svg" xmlns:xlink="http://www.w3.org/1999/xlink">
    <!-- Generator: Sketch 50.2 (55047) - http://www.bohemiancoding.com/sketch -->
    <title>star</title>
    <desc>Created with Sketch.</desc>
    <defs></defs>
    <g id="Page-1" stroke="none" stroke-width="1" fill="none" fill-rule="evenodd">
        <g id="star">
            <polygon id="Path-2" stroke="#979797" fill-opacity="0.221042799" fill="#F0F0F0" points="33.5 237 186 359.5 131.5 550 304.5 446 468 550 423.5 356.5 583 228.5 375.5 228.5 308.25 37.5 237 217"></polygon>
            <path d="M610.588,216.612 C613.582,225.254 611.822,232.108 605.267,237.231 L442.299,364.615 L500.836,557.851 C501.936,561.477 502.163,563.839 502.163,565.499 C502.163,575.809 494.181,583.791 483.871,583.791 C480.216,583.791 476.449,582.947 472.894,580.464 L306.266,464.057 L139.304,580.464 C132.337,585.324 124.673,584.792 117.358,580.464 C110.703,575.476 108.106,568.416 110.703,559.845 L169.907,364.615 L6.932,237.231 C0.589,232.272 -1.384,225.588 0.944,216.612 C3.938,208.296 9.593,204.301 18.576,204.301 L221.788,204.301 L288.308,12.399 C291.203,4.047 297.29,0.088 306.266,0.088 C315.249,0.088 321.002,4.047 323.898,12.399 L390.41,204.301 L593.63,204.301 C601.612,204.301 608.928,208.963 610.588,216.612 Z M409.703,343.329 L540.414,241.219 L377.106,241.219 C368.464,241.219 362.703,237.267 359.815,228.915 L306.266,74.257 L252.391,228.915 C249.482,237.26 243.741,241.219 235.426,241.219 L71.792,241.219 L202.496,343.329 C208.109,347.707 210.854,356.2 208.818,362.948 L161.591,519.6 L295.956,426.472 C302.477,421.952 309.494,421.796 316.242,426.472 L450.615,519.6 L403.388,362.948 C401.351,356.2 404.098,347.707 409.703,343.329 Z" id="Shape" fill="#C5C5C5" fill-rule="nonzero"></path>
        </g>
    </g>
</svg>